<svg id="visual" viewBox="0 0 900 600" width="900" height="600" xmlns="http://www.w3.org/2000/svg" xmlns:xlink="http://www.w3.org/1999/xlink" version="1.1"><rect x="0" y="0" width="900" height="600" fill="#22223a"></rect><defs><linearGradient id="grad1_0" x1="33.3%" y1="0%" x2="100%" y2="100%"><stop offset="20%" stop-color="#22223a" stop-opacity="1"></stop><stop offset="80%" stop-color="#22223a" stop-opacity="1"></stop></linearGradient></defs><defs><linearGradient id="grad2_0" x1="0%" y1="0%" x2="66.7%" y2="100%"><stop offset="20%" stop-color="#22223a" stop-opacity="1"></stop><stop offset="80%" stop-color="#22223a" stop-opacity="1"></stop></linearGradient></defs><g transform="translate(900, 0)"><path d="M0 351.5C-30.3 310.8 -60.6 270.1 -107.5 259.6C-154.5 249.2 -218 269 -248.6 248.6C-279.1 228.2 -276.6 167.5 -288.3 119.4C-299.9 71.3 -325.7 35.6 -351.5 0L0 0Z" fill="#4E4A69"></path></g><g transform="translate(0, 600)"><path d="M0 -351.5C35 -323 69.9 -294.4 117.1 -282.7C164.3 -271 223.7 -276.1 248.6 -248.6C273.5 -221.1 263.9 -160.9 275.3 -114C286.7 -67.2 319.1 -33.6 351.5 0L0 0Z" fill="#4E4A69"></path></g></svg>