<svg id="visual" viewBox="0 0 900 600" width="900" height="600" xmlns="http://www.w3.org/2000/svg" xmlns:xlink="http://www.w3.org/1999/xlink" version="1.1"><rect x="0" y="0" width="900" height="600" fill="#001220"></rect><defs><linearGradient id="grad1_0" x1="33.3%" y1="0%" x2="100%" y2="100%"><stop offset="20%" stop-color="#001220" stop-opacity="1"></stop><stop offset="80%" stop-color="#001220" stop-opacity="1"></stop></linearGradient></defs><defs><linearGradient id="grad2_0" x1="0%" y1="0%" x2="66.7%" y2="100%"><stop offset="20%" stop-color="#001220" stop-opacity="1"></stop><stop offset="80%" stop-color="#001220" stop-opacity="1"></stop></linearGradient></defs><g transform="translate(900, 0)"><path d="M0 297.5C-42.6 296.8 -85.2 296.1 -113.8 274.8C-142.4 253.5 -157 211.7 -183.1 183.1C-209.3 154.6 -246.9 139.3 -267.9 111C-288.9 82.7 -293.2 41.3 -297.5 0L0 0Z" fill="#4E4A69"></path></g><g transform="translate(0, 600)"><path d="M0 -297.5C34.4 -278.4 68.8 -259.3 100.6 -243C132.5 -226.6 161.9 -212.9 193 -193C224.2 -173.1 257.1 -147 274.8 -113.8C292.5 -80.6 295 -40.3 297.5 0L0 0Z" fill="#4E4A69"></path></g></svg>